<svg xmlns="http://www.w3.org/2000/svg" viewBox="0 0 475 357">
<defs><linearGradient id="g" x1="0" y1="357" x2="475" y2="0"><stop offset="0%" stop-color="#27d7b0"></stop><stop offset="100%" stop-color="#39e6c2"></stop></linearGradient></defs>
<path d="M 282 189 L 224 240 L 222 244 L 223 249 L 316 335 L 328 342 L 339 342 L 349 336 L 389 300 L 393 292 L 392 279 L 378 264 L 299 193 L 290 188 Z" fill="url(#g)"></path>
<path d="M 345 69 L 335 62 L 303 62 L 291 68 L 90 248 L 81 251 L 72 249 L 65 241 L 64 232 L 67 224 L 117 180 L 127 167 L 127 78 L 123 70 L 115 66 L 64 66 L 53 71 L 48 77 L 45 86 L 45 301 L 50 315 L 56 320 L 65 323 L 75 322 L 86 316 L 341 92 L 348 80 Z" fill="url(#g)"></path>
</svg>